{
  "source": "C:\\Users\\Peter\\Desktop\\stuff\\MIUN\\quantitative_research\\video_compression\\videos\\HEVC_CLASS_B\\ParkScene_1920x1080_24.y4m",
  "output": "C:\\Users\\Peter\\Desktop\\stuff\\MIUN\\quantitative_research\\video_compression\\compressed_videos\\HEVC_CLASS_B\\h264\\8\\ParkScene_1920x1080_24_h264.mp4",
  "codec": "h264",
  "ok": "Input #0, yuv4mpegpipe, from 'C:\\Users\\Peter\\Desktop\\stuff\\MIUN\\quantitative_research\\video_compression\\videos\\HEVC_CLASS_B\\ParkScene_1920x1080_24.y4m':\n  Duration: 00:00:10.00, start: 0.000000, bitrate: 597198 kb/s\n  Stream #0:0: Video: rawvideo (I420 / 0x30323449), yuv420p(progressive), 1920x1080, 24 fps, 24 tbr, 24 tbn\n[out#0/mp4 @ 000002d6d56fa640] Codec AVOption b:a (set bitrate (in bits/s)) has not been used for any stream. The most likely reason is either wrong type (e.g. a video option with no video streams) or that it is a private option of some decoder which was not actually used for any stream.\nStream mapping:\n  Stream #0:0 -> #0:0 (rawvideo (native) -> h264 (libx264))\nPress [q] to stop, [?] for help\n[libx264 @ 000002d6d56fcac0] using cpu capabilities: MMX2 SSE2Fast SSSE3 SSE4.2 AVX FMA3 BMI2 AVX2\n[libx264 @ 000002d6d56fcac0] profile High, level 5.0, 4:2:0, 8-bit\n[libx264 @ 000002d6d56fcac0] 264 - core 165 r3222 b35605a - H.264/MPEG-4 AVC codec - Copyleft 2003-2025 - http://www.videolan.org/x264.html - options: cabac=1 ref=5 deblock=1:0:0 analyse=0x3:0x113 me=hex subme=8 psy=1 psy_rd=1.00:0.00 mixed_ref=1 me_range=16 chroma_me=1 trellis=2 8x8dct=1 cqm=0 deadzone=21,11 fast_pskip=1 chroma_qp_offset=-2 threads=18 lookahead_threads=3 sliced_threads=0 nr=0 decimate=1 interlaced=0 bluray_compat=0 constrained_intra=0 bframes=3 b_pyramid=2 b_adapt=1 b_bias=0 direct=3 weightb=1 open_gop=0 weightp=2 keyint=250 keyint_min=24 scenecut=40 intra_refresh=0 rc_lookahead=50 rc=cbr mbtree=1 bitrate=8000 ratetol=1.0 qcomp=0.60 qpmin=0 qpmax=69 qpstep=4 vbv_maxrate=8000 vbv_bufsize=8000 nal_hrd=none filler=0 ip_ratio=1.40 aq=1:1.00\nOutput #0, mp4, to 'C:\\Users\\Peter\\Desktop\\stuff\\MIUN\\quantitative_research\\video_compression\\compressed_videos\\HEVC_CLASS_B\\h264\\8\\ParkScene_1920x1080_24_h264.mp4':\n  Metadata:\n    encoder         : Lavf62.3.100\n  Stream #0:0: Video: h264 (avc1 / 0x31637661), yuv420p(tv, progressive), 1920x1080, q=2-31, 8000 kb/s, 24 fps, 12288 tbn\n    Metadata:\n      encoder         : Lavc62.11.100 libx264\n    Side data:\n      cpb: bitrate max/min/avg: 8000000/0/8000000 buffer size: 8000000 vbv_delay: N/A\nframe=    0 fps=0.0 q=0.0 size=       0KiB time=N/A bitrate=N/A speed=N/A elapsed=0:00:00.50    \nframe=    0 fps=0.0 q=0.0 size=       0KiB time=N/A bitrate=N/A speed=N/A elapsed=0:00:01.02    \nframe=   17 fps= 11 q=27.0 size=     512KiB time=00:00:00.62 bitrate=6711.5kbits/s speed=0.402x elapsed=0:00:01.55    \nframe=   29 fps= 14 q=27.0 size=     768KiB time=00:00:01.12 bitrate=5592.7kbits/s speed=0.535x elapsed=0:00:02.10    \nframe=   45 fps= 17 q=27.0 size=    1280KiB time=00:00:01.79 bitrate=5852.7kbits/s speed=0.675x elapsed=0:00:02.65    \nframe=   61 fps= 19 q=27.0 size=    1792KiB time=00:00:02.45 bitrate=5971.7kbits/s speed=0.772x elapsed=0:00:03.18    \nframe=   81 fps= 22 q=27.0 size=    2560KiB time=00:00:03.29 bitrate=6371.2kbits/s speed=0.885x elapsed=0:00:03.71    \nframe=   97 fps= 23 q=27.0 size=    3072KiB time=00:00:03.95 bitrate=6357.8kbits/s speed=0.93x elapsed=0:00:04.25    \nframe=  117 fps= 24 q=27.0 size=    3584KiB time=00:00:04.75 bitrate=6181.2kbits/s speed=0.99x elapsed=0:00:04.79    \nframe=  133 fps= 25 q=27.0 size=    4096KiB time=00:00:05.45 bitrate=6147.4kbits/s speed=1.02x elapsed=0:00:05.32    \nframe=  149 fps= 25 q=27.0 size=    4608KiB time=00:00:06.12 bitrate=6163.1kbits/s speed=1.05x elapsed=0:00:05.84    \nframe=  169 fps= 27 q=26.0 size=    5120KiB time=00:00:06.87 bitrate=6100.9kbits/s speed=1.08x elapsed=0:00:06.37    \nframe=  185 fps= 27 q=26.0 size=    5632KiB time=00:00:07.62 bitrate=6050.8kbits/s speed= 1.1x elapsed=0:00:06.92    \nframe=  205 fps= 28 q=26.0 size=    6400KiB time=00:00:08.45 bitrate=6198.5kbits/s speed=1.14x elapsed=0:00:07.44    \nframe=  221 fps= 28 q=25.0 size=    6912KiB time=00:00:09.12 bitrate=6205.3kbits/s speed=1.14x elapsed=0:00:07.99    \n[mp4 @ 000002d6d56fb740] Starting second pass: moving the moov atom to the beginning of the file\n[out#0/mp4 @ 000002d6d56fa640] video:7531KiB audio:0KiB subtitle:0KiB other streams:0KiB global headers:0KiB muxing overhead: 0.049849%\nframe=  240 fps= 28 q=-1.0 Lsize=    7534KiB time=00:00:09.91 bitrate=6224.0kbits/s speed=1.17x elapsed=0:00:08.51    \n[libx264 @ 000002d6d56fcac0] frame I:1     Avg QP:22.28  size:318011\n[libx264 @ 000002d6d56fcac0] frame P:60    Avg QP:24.37  size: 88317\n[libx264 @ 000002d6d56fcac0] frame B:179   Avg QP:29.64  size: 11696\n[libx264 @ 000002d6d56fcac0] consecutive B-frames:  0.4%  0.0%  1.2% 98.3%\n[libx264 @ 000002d6d56fcac0] mb I  I16..4:  6.7% 78.6% 14.7%\n[libx264 @ 000002d6d56fcac0] mb P  I16..4:  0.1%  1.8%  0.5%  P16..4: 41.8% 26.4% 16.8%  0.0%  0.0%    skip:12.7%\n[libx264 @ 000002d6d56fcac0] mb B  I16..4:  0.0%  0.1%  0.0%  B16..8: 48.6%  4.6%  1.4%  direct: 2.3%  skip:43.0%  L0:40.9% L1:51.6% BI: 7.6%\n[libx264 @ 000002d6d56fcac0] 8x8 transform intra:77.2% inter:50.9%\n[libx264 @ 000002d6d56fcac0] direct mvs  spatial:94.4% temporal:5.6%\n[libx264 @ 000002d6d56fcac0] coded y,uvDC,uvAC intra: 91.4% 86.9% 64.4% inter: 15.5% 14.8% 4.6%\n[libx264 @ 000002d6d56fcac0] i16 v,h,dc,p: 34% 13%  7% 46%\n[libx264 @ 000002d6d56fcac0] i8 v,h,dc,ddl,ddr,vr,hd,vl,hu: 14%  9%  4% 10% 14% 14% 12% 11% 11%\n[libx264 @ 000002d6d56fcac0] i4 v,h,dc,ddl,ddr,vr,hd,vl,hu: 12%  8%  3% 10% 15% 14% 14% 12% 13%\n[libx264 @ 000002d6d56fcac0] i8c dc,h,v,p: 46% 18% 21% 16%\n[libx264 @ 000002d6d56fcac0] Weighted P-Frames: Y:0.0% UV:0.0%\n[libx264 @ 000002d6d56fcac0] ref P L0: 64.2% 15.6% 11.4%  5.5%  3.3%\n[libx264 @ 000002d6d56fcac0] ref B L0: 91.2%  6.4%  2.1%  0.4%\n[libx264 @ 000002d6d56fcac0] ref B L1: 96.1%  3.9%\n[libx264 @ 000002d6d56fcac0] kb/s:6168.45\n",
  "seconds": 8.626149892807007,
  "probe_out": {}
}